<?xml version="1.0" encoding="utf-8"?>
<!-- Generator: Adobe Illustrator 18.1.1, SVG Export Plug-In . SVG Version: 6.00 Build 0)  -->
<svg version="1.1" xmlns="http://www.w3.org/2000/svg" xmlns:xlink="http://www.w3.org/1999/xlink" x="0px" y="0px"
	 viewBox="-280 372 50 50" enable-background="new -280 372 50 50" xml:space="preserve">
<g id="Layer_2_2_" display="none">
	<path display="inline" fill="#010101" d="M-255,384.5c-6.9,0-12.5,5.6-12.5,12.5c0,6.9,5.6,12.5,12.5,12.5
		c6.9,0,12.5-5.6,12.5-12.5C-242.5,390.1-248.1,384.5-255,384.5z M-248.7,398.6h-4.7v4.7h-3.1v-4.7h-4.7v-3.1h4.7v-4.7h3.1v4.7h4.7
		V398.6z"/>
</g>
<g id="Layer_3" display="none">
	<path display="inline" fill="#010101" d="M-255,384.4c-7,0-12.6,5.6-12.6,12.6c0,7,5.6,12.6,12.6,12.6c7,0,12.6-5.6,12.6-12.6
		C-242.4,390-248,384.4-255,384.4z M-248.7,398.6h-4.7h-3.2h-4.7v-3.2h4.7h3.2h4.7V398.6z"/>
</g>
<g id="Layer_4" display="none">
	<path display="inline" fill="#010101" d="M-246.2,388c-4.9-4.9-12.8-4.9-17.7,0c-4.9,4.9-4.9,12.8,0,17.7c4.9,4.9,12.8,4.9,17.7,0
		C-241.3,400.8-241.3,392.9-246.2,388z M-251.7,402.4l-3.3-3.3l-3.3,3.3l-2.2-2.2l3.3-3.3l-3.3-3.3l2.2-2.2l3.3,3.3l3.3-3.3l2.2,2.2
		l-3.3,3.3l3.3,3.3L-251.7,402.4z"/>
</g>
<g id="Layer_6" display="none">
	<polygon display="inline" fill="#C7C7CC" points="-267.6,405 -265.5,407.2 -254.8,396.4 -244.3,407 -242.2,404.9 -254.8,392.2 	"/>
</g>
<g id="Layer_5" display="none">
	<polygon display="inline" fill="#C7C7CC" points="-242.2,394.3 -244.3,392.2 -255,402.9 -265.5,392.4 -267.6,394.5 -255,407.2 	"/>
</g>
<g id="Layer_8" display="none">
	<polygon display="inline" fill="#C7C7CC" points="-260.3,386.9 -262.4,389.1 -251.6,399.8 -262.2,410.3 -260.1,412.4 -247.4,399.7 
			"/>
</g>
<g id="Layer_7" display="none">
	<polygon display="inline" fill="#C7C7CC" points="-249.5,412.4 -247.4,410.3 -258.1,399.6 -247.6,389.1 -249.7,386.9 -262.4,399.6 
			"/>
</g>
<g id="Layer_9" display="none">
	<g display="inline">
		<path d="M-255.1,384.4c-4.3,0-7.7,3.5-7.7,7.7c0,4.3,3.5,7.7,7.7,7.7c4.3,0,7.7-3.5,7.7-7.7C-247.4,387.9-250.8,384.4-255.1,384.4
			z"/>
		<path d="M-246.4,401.2c1-0.6,1.5-1.8,1.1-2.9c0.9-0.4,1.5-1.3,1.5-2.3c0-0.6-0.2-1.1-0.5-1.5c0.8-0.4,1.4-1.2,1.4-2.2
			c0-0.9-0.4-1.6-1.1-2.1c0.4-0.4,0.6-1,0.6-1.6c0-1.3-1-2.4-2.3-2.5c0.1-0.3,0.2-0.6,0.2-0.9c0-1.4-1.1-2.5-2.5-2.5
			c-0.3,0-0.7,0.1-1,0.2c-0.1-1.3-1.1-2.3-2.5-2.3c-0.5,0-1,0.2-1.4,0.5c-0.6-1.1-1.9-1.5-3.1-1.1c-0.5,0.2-0.9,0.6-1.2,1
			c-0.7-0.6-1.7-0.8-2.6-0.4c-0.8,0.3-1.3,1-1.5,1.8c-0.5-0.2-1.2-0.2-1.7,0.1c-1.2,0.5-1.8,1.8-1.4,3c-0.3,0-0.6,0.1-0.9,0.2
			c-1.3,0.5-1.8,2-1.3,3.2c0.1,0.3,0.3,0.6,0.6,0.8c-1.2,0.6-1.7,2-1.2,3.2c0.1,0.3,0.3,0.6,0.6,0.8c-0.6,0.9-0.6,2.1,0.1,3
			c0.4,0.4,0.8,0.7,1.3,0.8c-0.4,0.8-0.3,1.8,0.3,2.6c0.3,0.4,0.8,0.7,1.3,0.8l-3.7,10l5.5-1.6l3.3,4.8l3.3-8.9l3.3,8.9l3.3-4.8
			l5.5,1.6l-3.6-9.8C-246.6,401.3-246.5,401.3-246.4,401.2z M-255.1,401.2c-5,0-9-4.1-9-9c0-5,4.1-9,9-9c5,0,9,4.1,9,9
			C-246.1,397.1-250.1,401.2-255.1,401.2z"/>
	</g>
	<rect x="-273.7" y="378.6" display="inline" fill="none" width="35.2" height="35.2"/>
</g>
<g id="Layer_10" display="none">
	<path display="inline" d="M-245.3,388.1l-17.6,0.5l-0.7-1.9h-3.8l0.8,1.4h1.1l2.8,8.4c-0.7,0.6-1.1,1.4-1.1,2.3
		c0,1.7,1.4,3.1,3.1,3.1h15.3v-2.3h-15.3c-0.4,0-0.8-0.3-0.8-0.8c0-0.3,0.2-0.6,0.5-0.7l0,0l15.6-3.2V388.1z"/>
	<circle display="inline" cx="-258.9" cy="404.8" r="2.3"/>
	<circle display="inline" cx="-247.6" cy="404.8" r="2.3"/>
</g>
<g id="Layer_11">
	<path fill="#989898" d="M-255,384.6c-6.9,0-12.4,5.6-12.4,12.4c0,6.9,5.6,12.4,12.4,12.4c6.9,0,12.4-5.6,12.4-12.4
		C-242.6,390.1-248.1,384.6-255,384.6z M-253.9,406.4h-2.2v-13.6h2.2V406.4z M-253.9,390.3h-2.2v-2.7h2.2V390.3z"/>
</g>
</svg>
