<svg id="Layer_1" data-name="Layer 1" xmlns="http://www.w3.org/2000/svg" viewBox="0 0 164 193"><title>Artboard 1</title><path d="M15.18,58.11V36.16h-.48V58.11h.48Z"/><path d="M22.92,46.17c1.6-1,2.36-2.6,2.36-5.13,0-2.36-.51-3.71-2.3-4.37a6,6,0,0,1,1.7,4.55A7.13,7.13,0,0,1,22.92,46.17Z"/><path d="M31,35.83V57.41h.48V35.83H31Z"/><path d="M19.08,46.57c2.89-.36,4.58-2.61,4.58-5.79,0-2.43-1-4.36-3.27-4.61a27.44,27.44,0,0,0-4.17,0V46.57A12.59,12.59,0,0,0,19.08,46.57Z"/><path d="M36.56,110.07c-3,0-4.81,2.31-4.81,5.92s1.85,5.92,4.81,5.92,4.81-2.31,4.81-5.92S39.52,110.07,36.56,110.07Z"/><path d="M130.65,68.62a2.55,2.55,0,0,0,1.48-.49v-.69a2.18,2.18,0,0,1-1.5.66,2.06,2.06,0,0,1,0-4.12,2.14,2.14,0,0,1,1.52.66V64a2.4,2.4,0,0,0-1.48-.49,2.57,2.57,0,1,0,0,5.14Z"/><path d="M67.27,84.45c-3,0-4.81,2.31-4.81,5.92s1.85,5.92,4.81,5.92,4.81-2.31,4.81-5.92S70.23,84.45,67.27,84.45Z"/><polygon points="143.58 68.02 141.55 68.02 141.55 66.07 143.52 66.07 143.52 65.55 141.55 65.55 141.55 64.08 143.58 64.08 143.58 63.56 141 63.56 141 68.53 143.58 68.53 143.58 68.02"/><path d="M91.66,112.86c0-1.63-1-2.57-3-2.57h-2v5.16h1.74C90.39,115.45,91.66,114.56,91.66,112.86Z"/><polygon points="104.67 117.19 109.48 117.19 107.07 110.86 104.67 117.19"/><polygon points="115.5 64.7 119.38 68.76 119.38 63.56 118.83 63.56 118.83 67.41 114.95 63.35 114.95 68.53 115.5 68.53 115.5 64.7"/><path d="M97.8,55.34S84.87,38,84.19,36.55v1.22L97.8,56.46Z"/><path d="M136,56.33l.41-1.08-.67-1.36c-2.67-5.44-4.92-10.7-7-15.82l0,.64c2,4.65,4.72,11,6.58,15.7Z"/><path d="M146.21,58.11h.6c-.66-5.9-1.33-13.11-2-20.48l-.31.69.27,2.34C145.19,44,145.73,51.21,146.21,58.11Z"/><path d="M109.46,58c-2.67-1.57-3.44-5-3.44-9.59V35.83h-.48V49c0,2.91.29,5.72,1.84,7.45A6,6,0,0,0,109.46,58Z"/><path d="M54.67,49l.07.2c1.06,3,2,6.12,2.83,8.91.26,0,.53,0,.81,0L50.92,36.67l-.26.71L54.76,49Z"/><path d="M76.79,58.11V35.83H76.3V58.11h.48Z"/><polygon points="50.12 38.89 46.96 48.04 53.33 48.04 50.12 38.89"/><path d="M65.73,58.18V36.45h-.48V58.18h.48Z"/><polygon points="31.99 68.02 29.97 68.02 29.97 66.07 31.93 66.07 31.93 65.55 29.97 65.55 29.97 64.08 31.99 64.08 31.99 63.56 29.41 63.56 29.41 68.53 31.99 68.53 31.99 68.02"/><polygon points="89.39 65.17 89.4 65.17 91 68.74 92.6 65.17 92.61 65.17 93.25 68.53 93.82 68.53 92.81 63.28 91 67.45 89.19 63.28 88.18 68.53 88.75 68.53 89.39 65.17"/><path d="M41.41,66.35h.14l1.51,2.18h.68L42.15,66.3a1.3,1.3,0,0,0,1.25-1.37c0-1.12-.88-1.37-1.82-1.37h-.72v5h.56Zm0-2.28h.16c.67,0,1.27.08,1.27.9s-.64.89-1.26.89h-.17Z"/><path d="M18.72,66.36h.4A1.81,1.81,0,0,0,20.31,66,1.4,1.4,0,0,0,20.78,65a1.37,1.37,0,0,0-.56-1.13A2.11,2.11,0,0,0,19,63.56h-.82v5h.56Zm0-2.28h.2c.65,0,1.3.06,1.3.87s-.52.9-1.14.9h-.37Z"/><polygon points="52.91 66.07 54.57 66.07 54.57 65.55 52.91 65.55 52.91 64.08 54.62 64.08 54.62 63.56 52.35 63.56 52.35 68.53 52.91 68.53 52.91 66.07"/><path d="M77.6,66.35h.14l1.5,2.18h.68L78.33,66.3a1.3,1.3,0,0,0,1.25-1.37c0-1.12-.87-1.37-1.82-1.37H77v5h.56Zm0-2.28h.16c.67,0,1.27.08,1.27.9s-.63.89-1.26.89H77.6Z"/><path d="M65.77,68.62a2.57,2.57,0,1,0-2.59-2.57A2.58,2.58,0,0,0,65.77,68.62Zm0-4.63a2.06,2.06,0,1,1-2,2.06A2,2,0,0,1,65.77,64Z"/><path d="M151,68.74h-.29V69h.18c.16,0,.38,0,.38-.13S151.15,68.74,151,68.74Z"/><path d="M0,0V147l82,29,82-29V0ZM127.73,34.75h.75c2.32,5.68,5.1,12.4,8.19,18.72,2.75-6.11,5.42-12.33,8.34-18.72h.61c.75,8.83,1.56,17.62,2.35,24.44-.52,0-.92-.11-1.36-.11s-.93.07-1.36.11c-.49-7.18-1.07-14.9-1.48-18.44-3.36,7.4-5.85,13.11-7.59,18h-.32l-1.59-4c-1.85-4.72-3.88-9.36-5.85-14-.64,7-1.42,14-1.42,18.44-.38,0-.69-.11-1-.11a9.13,9.13,0,0,0-1,.11C125.7,53.43,127.44,38.5,127.73,34.75Zm-23.23,0c.4,0,.84.11,1.27.11s.81-.07,1.27-.11V48.43c0,6.29,1.45,9.54,6.4,9.54,4.61,0,6.26-4.11,6.26-9.9V34.75a5.75,5.75,0,0,0,.81.11,7.2,7.2,0,0,0,.81-.11V49c0,7.07-3.36,10.65-8.46,10.65a7.73,7.73,0,0,1-6.28-2.5c-1.83-2-2.06-5.21-2.08-8.07Zm-21.91,0h1.13l13.75,18.4h.29V34.75a5.8,5.8,0,0,0,.81.11,7.36,7.36,0,0,0,.81-.11V59.19h-.87c-.32-.5-.9-1.36-1.51-2.18L84.5,39.93h-.29V59.19a6.78,6.78,0,0,0-.81-.11,5.49,5.49,0,0,0-.81.11Zm-7.32,0c.4,0,.84.11,1.27.11s.81-.07,1.27-.11V59.19c-.46,0-.87-.11-1.27-.11s-.87.07-1.27.11Zm-17.39,0H72.82c0,.39-.09.72-.09,1.07s.06.72.09,1.07a40.89,40.89,0,0,0-6.05-.43v22.8c-.46,0-.87-.11-1.27-.11s-.87.07-1.27.11V36.46a43.83,43.83,0,0,0-6.34.43c0-.36.09-.71.09-1.07S57.9,35.14,57.88,34.75Zm-7.38-.54h.67l8.69,25c-.55,0-1-.11-1.51-.11s-1,.07-1.53.11c-.84-3-1.88-6.4-3-9.65H46.41c-1,3.14-2.06,6.29-2.87,9.65-.41,0-.73-.11-1.07-.11a8,8,0,0,0-1,.11ZM30,34.75c.41,0,.84.11,1.27.11s.81-.07,1.27-.11V57.4c1.77.07,3.5-.07,5.24-.14a24.18,24.18,0,0,0,2.75-.32c0,.39-.09.71-.09,1.07s.06.71.09,1.07H30Zm-16.3,0h5.18c5.62,0,7.47,1.54,7.47,5.86s-2.11,6.29-6.2,7.29a16.3,16.3,0,0,1-3.91.07V59.19c-.46,0-.87-.11-1.27-.11s-.87.07-1.27.11Zm5.28,89c-4.22,0-6.94-3.13-6.94-7.77s2.76-7.81,7-7.81a7.23,7.23,0,0,1,4.27,1.24l-.3,2.09a6.44,6.44,0,0,0-4-1.46c-3,0-4.85,2.31-4.85,5.92s1.83,5.9,4.85,5.9a7.16,7.16,0,0,0,4.22-1.5l.3,1.94A7.92,7.92,0,0,1,18.94,123.79Zm17.59,0c-4.22,0-6.9-3.13-6.9-7.77s2.72-7.81,6.95-7.81,6.9,3.13,6.9,7.77S40.78,123.79,36.54,123.79Zm6.18-33.4c0-4.66,2.76-7.81,7-7.81A7.23,7.23,0,0,1,54,83.82l-.3,2.09a6.44,6.44,0,0,0-4-1.46c-3,0-4.85,2.31-4.85,5.92s1.83,5.9,4.85,5.9a7.16,7.16,0,0,0,4.22-1.5l.3,1.94a7.93,7.93,0,0,1-4.55,1.46C45.44,98.16,42.71,95,42.71,90.39Zm14,33.18H54.86l-5.79-14.8,2-.44,4.68,12.5,4.59-12.34h2.16Zm3.66-33.18c0-4.66,2.72-7.81,6.95-7.81s6.9,3.13,6.9,7.77-2.7,7.82-6.94,7.82S60.35,95,60.35,90.39ZM77.66,123.5H69.34v-15h8.1v1.87H71.39v4.35h4.7l.3,1.87h-5v5.05h6.27Zm3.9-25.63v-15h2V96H89l.28,1.87Zm11.26,25.78-4.59-6.49H86.67v6.33h-2v-15h4.09c3.07,0,5,1.52,5,4.27a4.08,4.08,0,0,1-3.29,4.16l4.46,6.29Zm5.46-25.78h-2v-15h2Zm13.67,25.78L110.18,119H104l-1.7,4.51h-2.07l5.88-15.09h2l5.79,14.8Zm.76-25.49c-4.22,0-6.94-3.13-6.94-7.77s2.76-7.81,7-7.81A7.23,7.23,0,0,1,117,83.82l-.3,2.09a6.44,6.44,0,0,0-4-1.46c-3,0-4.85,2.31-4.85,5.92s1.83,5.9,4.85,5.9a7.16,7.16,0,0,0,4.22-1.5l.3,1.94A7.92,7.92,0,0,1,112.7,98.16Zm19.2,24.17a9.55,9.55,0,0,1-5.07,1.46c-4.77,0-7.31-3.13-7.31-7.77s2.66-7.81,7.14-7.81a7.8,7.8,0,0,1,4.57,1.28l-.33,2.09a6.74,6.74,0,0,0-4.27-1.5c-3.29,0-5,2.31-5,5.92s1.76,5.9,5.2,5.9a5.84,5.84,0,0,0,3-.74v-4h-3.46l-.28-1.87h5.77ZM148,123.5h-8.32v-15h8.1v1.87H141.7v4.35h4.7l.31,1.87h-5v5.05H148Zm.14-53H13.65V61.71H148.11Zm2.84-.27A1.05,1.05,0,1,1,152,69.16,1,1,0,0,1,150.95,70.21Z"/><path d="M103.12,67.12h2.13l.59,1.41h.61l-2.24-5.21-2.3,5.21h.61Zm1.08-2.51.83,2h-1.68Z"/><path d="M150.95,68.28a.88.88,0,1,0,.88.88A.88.88,0,0,0,150.95,68.28Zm.48,1.48h-.19l-.3-.55h-.22v.55h-.17V68.57h.5c.21,0,.41.06.41.31a.3.3,0,0,1-.32.32Z"/></svg>