<?xml version="1.0" encoding="utf-8"?>
<!-- Generator: Adobe Illustrator 18.1.1, SVG Export Plug-In . SVG Version: 6.00 Build 0)  -->
<svg version="1.1" id="Layer_1" xmlns="http://www.w3.org/2000/svg" xmlns:xlink="http://www.w3.org/1999/xlink" x="0px" y="0px"
	 viewBox="0 0 50 50" enable-background="new 0 0 50 50" xml:space="preserve">
<path fill="#010101" d="M36,34.2H14V17.6h22V34.2L36,34.2z M16.6,32.7h16.8L27.9,27l-1,1.1c-0.5,0.5-1.1,0.7-1.8,0.7c0,0,0,0,0,0
	c-0.7,0-1.3-0.3-1.8-0.7L22.2,27L16.6,32.7L16.6,32.7z M15.5,20.3v11.3l5.6-5.7L15.5,20.3L15.5,20.3z M29,25.9l5.5,5.6V20.4L29,25.9
	L29,25.9z M16.6,19.2l7.7,7.8c0.2,0.2,0.4,0.3,0.7,0.3c0,0,0,0,0,0c0.3,0,0.5-0.1,0.7-0.3l7.8-7.8H16.6L16.6,19.2z"/>
</svg>
