<?xml version="1.0" encoding="utf-8"?>
<!-- Generator: Adobe Illustrator 19.2.1, SVG Export Plug-In . SVG Version: 6.00 Build 0)  -->
<svg version="1.1" id="Layer_1" xmlns="http://www.w3.org/2000/svg" xmlns:xlink="http://www.w3.org/1999/xlink" x="0px" y="0px"
	 viewBox="0 0 229 214" style="enable-background:new 0 0 229 214;" xml:space="preserve">
<style type="text/css">
	.st0{stroke:#FFFFFF;stroke-width:1.4589;stroke-linecap:round;}
	.st1{stroke:#FFFFFF;stroke-width:1.0421;stroke-linecap:round;}
</style>
<g>
	<g>
		<g>
			<path d="M2.7,119.2c0,0,7.8-1,10.8-1c2.9,0,6.4,0,6.4,0s1.7-2,2.9-2.9c1.2-1,2.2-1.2,2.2-1.2s4.4-7.8,7.1-11
				c2.7-3.2,2.9-3.9,5.1-5.6c2.2-1.7,5.1-3.2,5.1-3.2s-0.7-8.1-2.4-13c-1.7-4.9-1.2-7.8,0-8.3c1.2-0.5,9.3-2,14.4,2
				c5.1,3.9,12.7,10.5,12.7,10.5s6.6-4.6,10-7.1c3.4-2.4,19.8-14.9,59-14.9c39.1,0,56.8,14.4,63.1,20.8c6.4,6.4,16.6,18.3,16.6,33.5
				s-3.4,27.4-8.1,35.5c-4.6,8.1-8.8,14.4-9.3,19.1c-0.5,4.7-0.7,10-1.7,12c-1,2-2.7,6.8-7.1,17.4c-4.4,10.5-4.2,10.8-6.6,11.3
				c-2.4,0.5-14.4,1.2-15.7-2c-1.2-3.2-1.5-7.3-1.5-14.2c0-6.8-2-12.7-3.7-14.7c-1.7-2-3.4-4.2-6.4-3.2c-2.9,1-27.6,2.9-32,3.4
				c-4.4,0.5-20.8,0-20.8,0s-5.9,13-7.6,17.6c-1.7,4.6-4.9,7.1-6.6,9.1c-1.7,2-2.9,4.2-4.9,4.2c-2,0-14.7,0.5-15.2-1.5
				c-0.5-2-1-4.6,0.2-11.7c1.2-7.1,0.2-19.1-0.5-21.3c-0.7-2.2-3.4-6.6-3.4-6.6s-16.4-1.5-21-4.2c-4.6-2.7-14.4-7.1-17.6-9.3
				c-3.2-2.2-17.1-10.5-17.1-10.5l-1-1c0,0-0.7-2.7-0.7-3.4c0-0.7,0-0.7,0-0.7s-2.9-0.2-4.6-4.9c-1.7-4.6-2.7-13.7-2.2-15.7
				C1.3,120.5,2.7,119.2,2.7,119.2z M90.8,78.1l-2.4,10c0,0,14.2-7.5,46.7-7.5c32.5,0,46.7,7.5,46.7,7.5l-1.7-10c0,0-13-8.9-45-8.9
				C103,69.2,90.8,78.1,90.8,78.1z"/>
		</g>
		<ellipse cx="136.4" cy="28.7" rx="28.1" ry="28.1"/>
	</g>
	<g>
		<ellipse cx="219.8" cy="93.7" rx="8.5" ry="8.5"/>
		<path class="st0" d="M225.2,93.2c0,9-7.3,16.4-16.4,16.4"/>
		<path class="st1" d="M225.4,80.8c3.6,5.4,2.1,12.6-3.3,16.2"/>
	</g>
</g>
</svg>
