<?xml version="1.0" encoding="utf-8"?>
<!-- Generator: Adobe Illustrator 19.2.1, SVG Export Plug-In . SVG Version: 6.00 Build 0)  -->
<svg version="1.1" id="Layer_1" xmlns="http://www.w3.org/2000/svg" xmlns:xlink="http://www.w3.org/1999/xlink" x="0px" y="0px"
	 viewBox="0 0 278 207" style="enable-background:new 0 0 278 207;" xml:space="preserve">
<g>
	<path d="M258.9,192.3c-16.5-3.1-40.8-7.8-63.9-9c-26.1-1.3-44,2.2-55,10.6c-13.7-10.3-40.5-13.3-79.9-8.9
		c-31,3.4-59,10.4-59.3,10.5l2.2,8.7c30.1-7.5,112.8-22.4,134-1.2l3.2,3.2l3.1-3.2c19.9-19.9,83.2-7.7,114-1.9
		c10.2,1.9,15.6,3.2,19.6,3.2v-9C272.8,195.4,267.5,194,258.9,192.3z"/>
	<path d="M136.8,175.1V8.9C99.8-11.6,0.8,13,0.8,13v165.9C0.8,178.9,99.8,154,136.8,175.1z"/>
	<path d="M277.2,179.6l-1-165.9c0,0-94.4-23.4-131.4-4.4v166.3C177.8,155.9,277.2,179.6,277.2,179.6z"/>
</g>
</svg>
