<?xml version="1.0" encoding="utf-8"?>
<!-- Generator: Adobe Illustrator 19.2.0, SVG Export Plug-In . SVG Version: 6.00 Build 0)  -->
<svg version="1.1" id="Layer_1" xmlns="http://www.w3.org/2000/svg" xmlns:xlink="http://www.w3.org/1999/xlink" x="0px" y="0px"
	 viewBox="0 0 72.667 74.5" enable-background="new 0 0 72.667 74.5" xml:space="preserve">
<path fill-rule="evenodd" clip-rule="evenodd" d="M60.779,59.717c-0.066,10.81-8.762,16.424-17.764,13.635
	c-3.688-1.142-8.209-1.369-11.883-0.341c-5.553,1.554-10.412,2.042-14.781-2.191c-4.615-4.472-5.332-9.992-2.791-15.564
	c1.834-4.019,4.648-7.603,7.133-11.309c2.68-3.999,5.357-8.012,8.269-11.841c3.801-4.998,9.428-5.917,13.166-1.382
	c6.104,7.405,11.555,15.37,16.969,23.312C60.41,55.962,60.504,58.716,60.779,59.717z"/>
<path fill-rule="evenodd" clip-rule="evenodd" d="M51.587,34.543c0.652-6.115,2.959-11.096,7.941-14.489
	c5.023-3.421,10.365-1.368,11.928,4.507c1.645,6.184-0.601,11.423-4.433,16.054c-2.682,3.239-6.261,5.354-10.514,3.683
	C52.145,42.583,51.609,38.467,51.587,34.543z"/>
<path fill-rule="evenodd" clip-rule="evenodd" d="M37.666,18.147c-0.032-6.149,1.705-11.356,6.279-15.283
	C48.555-1.095,54.092,0.35,56.3,6.015c2.323,5.962,0.676,11.419-2.617,16.447c-2.305,3.518-5.625,6.017-10.039,4.83
	C39.118,26.075,38.126,22.046,37.666,18.147z"/>
<path fill-rule="evenodd" clip-rule="evenodd" d="M20.295,35.254c-0.221-6.146-2.171-11.276-6.902-15.013
	c-4.771-3.766-10.244-2.093-12.215,3.657c-2.076,6.053-0.205,11.438,3.291,16.326c2.448,3.42,5.868,5.779,10.229,4.412
	C19.172,43.235,19.996,39.167,20.295,35.254z"/>
<path fill-rule="evenodd" clip-rule="evenodd" d="M34.893,17.908c-0.148-6.147-2.038-11.301-6.725-15.092
	C23.443-1.006,17.95,0.601,15.91,6.328c-2.147,6.028-0.34,11.434,3.099,16.363c2.408,3.448,5.799,5.85,10.176,4.534
	C33.674,25.876,34.548,21.819,34.893,17.908z"/>
</svg>
