<?xml version="1.0" encoding="utf-8"?>
<!-- Generator: Adobe Illustrator 16.0.4, SVG Export Plug-In . SVG Version: 6.00 Build 0)  -->
<!DOCTYPE svg PUBLIC "-//W3C//DTD SVG 1.1//EN" "http://www.w3.org/Graphics/SVG/1.1/DTD/svg11.dtd">
<svg version="1.1" id="Layer_1" xmlns="http://www.w3.org/2000/svg" xmlns:xlink="http://www.w3.org/1999/xlink" x="0px" y="0px"
	 width="80px" height="80px" viewBox="0 0 80 80" enable-background="new 0 0 80 80" xml:space="preserve">
<path fill="#272727" d="M48.775,14.119c0,0-1.618,3.932-3.357,4.844c-1.687,0.883-2.937,1.844-3.526,1.99
	c-0.59,0.148-6.49,0-8.801,0.443s-15.733,4.475-18.24,9.932c-0.836,1.918,0,16.816,0,16.816s0.934,6.342,1.917,9.291
	c0.983,2.951,4.425,8.506,4.769,8.605c-0.049-2.262-0.393-6.49,1.131-10.326c1.524-3.834,5.212-9.391,8.408-11.947
	C34.271,41.211,35.923,40,36.71,40s0.707,0.719,1.642,1.408c0.935,0.688,1.278,0.934,2.852,1.523s1.377,0.59,3.196,0.639
	c1.819,0.051,2.654,0.541,3.736,1.182c1.082,0.639,4.671,1.67,5.998,2.211c1.328,0.541,1.131,0.443,2.164,1.525
	c1.032,1.082,1.573,1.277,3.393,0.982c1.818-0.295,4.326-1.031,5.015-2.754c0.688-1.721,1.131-4.375,0.541-5.604
	c-0.59-1.23-2.312-2.754-3.196-3.688c-0.885-0.936-5.457-5.311-7.276-7.277s-6.195-6.441-6.981-7.67
	c-0.787-1.229-0.688-1.328,0-2.605c0.688-1.279,1.131-1.771,1.426-2.852C49.513,15.939,49.759,13.283,48.775,14.119z"/>
</svg>
