<?xml version="1.0" encoding="utf-8"?>
<!-- Generator: Adobe Illustrator 18.1.1, SVG Export Plug-In . SVG Version: 6.00 Build 0)  -->
<svg version="1.1" id="Layer_9" xmlns="http://www.w3.org/2000/svg" xmlns:xlink="http://www.w3.org/1999/xlink" x="0px" y="0px"
	 viewBox="-280 372 50 50" enable-background="new -280 372 50 50" xml:space="preserve">
<g>
	<path d="M-255.1,384.4c-4.3,0-7.7,3.5-7.7,7.7c0,4.3,3.5,7.7,7.7,7.7c4.3,0,7.7-3.5,7.7-7.7C-247.4,387.9-250.8,384.4-255.1,384.4z
		"/>
	<path d="M-246.4,401.2c1-0.6,1.5-1.8,1.1-2.9c0.9-0.4,1.5-1.3,1.5-2.3c0-0.6-0.2-1.1-0.5-1.5c0.8-0.4,1.4-1.2,1.4-2.2
		c0-0.9-0.4-1.6-1.1-2.1c0.4-0.4,0.6-1,0.6-1.6c0-1.3-1-2.4-2.3-2.5c0.1-0.3,0.2-0.6,0.2-0.9c0-1.4-1.1-2.5-2.5-2.5
		c-0.3,0-0.7,0.1-1,0.2c-0.1-1.3-1.1-2.3-2.5-2.3c-0.5,0-1,0.2-1.4,0.5c-0.6-1.1-1.9-1.5-3.1-1.1c-0.5,0.2-0.9,0.6-1.2,1
		c-0.7-0.6-1.7-0.8-2.6-0.4c-0.8,0.3-1.3,1-1.5,1.8c-0.5-0.2-1.2-0.2-1.7,0.1c-1.2,0.5-1.8,1.8-1.4,3c-0.3,0-0.6,0.1-0.9,0.2
		c-1.3,0.5-1.8,2-1.3,3.2c0.1,0.3,0.3,0.6,0.6,0.8c-1.2,0.6-1.7,2-1.2,3.2c0.1,0.3,0.3,0.6,0.6,0.8c-0.6,0.9-0.6,2.1,0.1,3
		c0.4,0.4,0.8,0.7,1.3,0.8c-0.4,0.8-0.3,1.8,0.3,2.6c0.3,0.4,0.8,0.7,1.3,0.8l-3.7,10l5.5-1.6l3.3,4.8l3.3-8.9l3.3,8.9l3.3-4.8
		l5.5,1.6l-3.6-9.8C-246.6,401.3-246.5,401.3-246.4,401.2z M-255.1,401.2c-5,0-9-4.1-9-9c0-5,4.1-9,9-9c5,0,9,4.1,9,9
		C-246.1,397.1-250.1,401.2-255.1,401.2z"/>
</g>
<rect x="-273.7" y="378.6" fill="none" width="35.2" height="35.2"/>
</svg>
