<?xml version="1.0" encoding="utf-8"?>
<!-- Generator: Adobe Illustrator 18.1.1, SVG Export Plug-In . SVG Version: 6.00 Build 0)  -->
<svg version="1.1" id="Layer_2" xmlns="http://www.w3.org/2000/svg" xmlns:xlink="http://www.w3.org/1999/xlink" x="0px" y="0px"
	 viewBox="-280 372 50 50" enable-background="new -280 372 50 50" xml:space="preserve">
<path fill="#511D1D" d="M-260.5,402.5L-260.5,402.5L-260.5,402.5 M-260.5,402.5L-260.5,402.5C-260.5,402.5-260.5,402.5-260.5,402.5
	 M-260.5,402.5C-260.5,402.5-260.5,402.5-260.5,402.5C-260.5,402.5-260.5,402.5-260.5,402.5L-260.5,402.5 M-264.9,381.3
	c-2.2,0-4.3,2.4-4.7,2.9l-0.1,0.2l-0.1,0.2c-3,7.1,7.1,17.7,8.3,19h0l0,0l0,0l0,0c1,1,9.2,9.1,15.8,9.1c1,0,2-0.2,2.8-0.6l0.2-0.1
	l0.2-0.1c0.6-0.5,3.7-3.3,2.7-5.9c-0.4-1-3.8-4.7-8.2-5.5l-0.2,0l-0.2,0.1c-0.2,0-1.7,0.4-3.7,1.8c-0.7-0.4-2.1-1.4-4.3-3.7
	c-2.2-2.3-3.2-3.7-3.6-4.4c1.4-2.1,1.7-3.6,1.7-3.8l0.1-0.3l0-0.3c-0.7-4.4-4.3-7.9-5.3-8.3C-264.2,381.3-264.5,381.3-264.9,381.3
	L-264.9,381.3z"/>
</svg>
